<mxfile host="Electron" modified="2024-05-03T08:50:51.310Z" agent="Mozilla/5.0 (Windows NT 10.0; Win64; x64) AppleWebKit/537.36 (KHTML, like Gecko) draw.io/24.2.5 Chrome/120.0.6099.109 Electron/28.1.0 Safari/537.36" etag="ZPtdnmC4k2ROrMeJqFjN" version="24.2.5" type="device">
  <diagram name="第 1 页" id="DGAGM4fASEK_S_KQiLZ_">
    <mxGraphModel dx="2887" dy="1190" grid="1" gridSize="10" guides="1" tooltips="1" connect="1" arrows="1" fold="1" page="1" pageScale="1" pageWidth="827" pageHeight="1169" math="0" shadow="0">
      <root>
        <mxCell id="0" />
        <mxCell id="1" parent="0" />
        <mxCell id="GYayQTxHQQA6wyQ_yWLV-141" value="" style="rounded=0;whiteSpace=wrap;html=1;fillColor=#b1ddf0;strokeColor=#10739e;" vertex="1" parent="1">
          <mxGeometry x="-40" y="305" width="980" height="435" as="geometry" />
        </mxCell>
        <mxCell id="GYayQTxHQQA6wyQ_yWLV-1" value="" style="shape=table;startSize=0;container=1;collapsible=0;childLayout=tableLayout;fontSize=16;fillColor=#ffe6cc;strokeColor=#d79b00;" vertex="1" parent="1">
          <mxGeometry x="50" y="480" width="334" height="215" as="geometry" />
        </mxCell>
        <mxCell id="GYayQTxHQQA6wyQ_yWLV-2" value="" style="shape=tableRow;horizontal=0;startSize=0;swimlaneHead=0;swimlaneBody=0;strokeColor=inherit;top=0;left=0;bottom=0;right=0;collapsible=0;dropTarget=0;fillColor=none;points=[[0,0.5],[1,0.5]];portConstraint=eastwest;fontSize=16;" vertex="1" parent="GYayQTxHQQA6wyQ_yWLV-1">
          <mxGeometry width="334" height="36" as="geometry" />
        </mxCell>
        <mxCell id="GYayQTxHQQA6wyQ_yWLV-52" style="shape=partialRectangle;html=1;whiteSpace=wrap;connectable=0;strokeColor=inherit;overflow=hidden;fillColor=none;top=0;left=0;bottom=0;right=0;pointerEvents=1;fontSize=16;" vertex="1" parent="GYayQTxHQQA6wyQ_yWLV-2">
          <mxGeometry width="42" height="36" as="geometry">
            <mxRectangle width="42" height="36" as="alternateBounds" />
          </mxGeometry>
        </mxCell>
        <mxCell id="GYayQTxHQQA6wyQ_yWLV-3" value="" style="shape=partialRectangle;html=1;whiteSpace=wrap;connectable=0;strokeColor=inherit;overflow=hidden;fillColor=none;top=0;left=0;bottom=0;right=0;pointerEvents=1;fontSize=16;" vertex="1" parent="GYayQTxHQQA6wyQ_yWLV-2">
          <mxGeometry x="42" width="41" height="36" as="geometry">
            <mxRectangle width="41" height="36" as="alternateBounds" />
          </mxGeometry>
        </mxCell>
        <mxCell id="GYayQTxHQQA6wyQ_yWLV-4" value="" style="shape=partialRectangle;html=1;whiteSpace=wrap;connectable=0;strokeColor=inherit;overflow=hidden;fillColor=none;top=0;left=0;bottom=0;right=0;pointerEvents=1;fontSize=16;" vertex="1" parent="GYayQTxHQQA6wyQ_yWLV-2">
          <mxGeometry x="83" width="42" height="36" as="geometry">
            <mxRectangle width="42" height="36" as="alternateBounds" />
          </mxGeometry>
        </mxCell>
        <mxCell id="GYayQTxHQQA6wyQ_yWLV-5" value="" style="shape=partialRectangle;html=1;whiteSpace=wrap;connectable=0;strokeColor=inherit;overflow=hidden;fillColor=none;top=0;left=0;bottom=0;right=0;pointerEvents=1;fontSize=16;" vertex="1" parent="GYayQTxHQQA6wyQ_yWLV-2">
          <mxGeometry x="125" width="42" height="36" as="geometry">
            <mxRectangle width="42" height="36" as="alternateBounds" />
          </mxGeometry>
        </mxCell>
        <mxCell id="GYayQTxHQQA6wyQ_yWLV-34" style="shape=partialRectangle;html=1;whiteSpace=wrap;connectable=0;strokeColor=inherit;overflow=hidden;fillColor=none;top=0;left=0;bottom=0;right=0;pointerEvents=1;fontSize=16;" vertex="1" parent="GYayQTxHQQA6wyQ_yWLV-2">
          <mxGeometry x="167" width="41" height="36" as="geometry">
            <mxRectangle width="41" height="36" as="alternateBounds" />
          </mxGeometry>
        </mxCell>
        <mxCell id="GYayQTxHQQA6wyQ_yWLV-40" style="shape=partialRectangle;html=1;whiteSpace=wrap;connectable=0;strokeColor=inherit;overflow=hidden;fillColor=none;top=0;left=0;bottom=0;right=0;pointerEvents=1;fontSize=16;" vertex="1" parent="GYayQTxHQQA6wyQ_yWLV-2">
          <mxGeometry x="208" width="42" height="36" as="geometry">
            <mxRectangle width="42" height="36" as="alternateBounds" />
          </mxGeometry>
        </mxCell>
        <mxCell id="GYayQTxHQQA6wyQ_yWLV-58" style="shape=partialRectangle;html=1;whiteSpace=wrap;connectable=0;strokeColor=inherit;overflow=hidden;fillColor=none;top=0;left=0;bottom=0;right=0;pointerEvents=1;fontSize=16;" vertex="1" parent="GYayQTxHQQA6wyQ_yWLV-2">
          <mxGeometry x="250" width="42" height="36" as="geometry">
            <mxRectangle width="42" height="36" as="alternateBounds" />
          </mxGeometry>
        </mxCell>
        <mxCell id="GYayQTxHQQA6wyQ_yWLV-64" style="shape=partialRectangle;html=1;whiteSpace=wrap;connectable=0;strokeColor=inherit;overflow=hidden;fillColor=none;top=0;left=0;bottom=0;right=0;pointerEvents=1;fontSize=16;" vertex="1" parent="GYayQTxHQQA6wyQ_yWLV-2">
          <mxGeometry x="292" width="42" height="36" as="geometry">
            <mxRectangle width="42" height="36" as="alternateBounds" />
          </mxGeometry>
        </mxCell>
        <mxCell id="GYayQTxHQQA6wyQ_yWLV-14" style="shape=tableRow;horizontal=0;startSize=0;swimlaneHead=0;swimlaneBody=0;strokeColor=inherit;top=0;left=0;bottom=0;right=0;collapsible=0;dropTarget=0;fillColor=none;points=[[0,0.5],[1,0.5]];portConstraint=eastwest;fontSize=16;" vertex="1" parent="GYayQTxHQQA6wyQ_yWLV-1">
          <mxGeometry y="36" width="334" height="35" as="geometry" />
        </mxCell>
        <mxCell id="GYayQTxHQQA6wyQ_yWLV-53" style="shape=partialRectangle;html=1;whiteSpace=wrap;connectable=0;strokeColor=inherit;overflow=hidden;fillColor=none;top=0;left=0;bottom=0;right=0;pointerEvents=1;fontSize=16;" vertex="1" parent="GYayQTxHQQA6wyQ_yWLV-14">
          <mxGeometry width="42" height="35" as="geometry">
            <mxRectangle width="42" height="35" as="alternateBounds" />
          </mxGeometry>
        </mxCell>
        <mxCell id="GYayQTxHQQA6wyQ_yWLV-15" style="shape=partialRectangle;html=1;whiteSpace=wrap;connectable=0;strokeColor=inherit;overflow=hidden;fillColor=none;top=0;left=0;bottom=0;right=0;pointerEvents=1;fontSize=16;" vertex="1" parent="GYayQTxHQQA6wyQ_yWLV-14">
          <mxGeometry x="42" width="41" height="35" as="geometry">
            <mxRectangle width="41" height="35" as="alternateBounds" />
          </mxGeometry>
        </mxCell>
        <mxCell id="GYayQTxHQQA6wyQ_yWLV-16" style="shape=partialRectangle;html=1;whiteSpace=wrap;connectable=0;strokeColor=inherit;overflow=hidden;fillColor=none;top=0;left=0;bottom=0;right=0;pointerEvents=1;fontSize=16;" vertex="1" parent="GYayQTxHQQA6wyQ_yWLV-14">
          <mxGeometry x="83" width="42" height="35" as="geometry">
            <mxRectangle width="42" height="35" as="alternateBounds" />
          </mxGeometry>
        </mxCell>
        <mxCell id="GYayQTxHQQA6wyQ_yWLV-17" style="shape=partialRectangle;html=1;whiteSpace=wrap;connectable=0;strokeColor=inherit;overflow=hidden;fillColor=none;top=0;left=0;bottom=0;right=0;pointerEvents=1;fontSize=16;" vertex="1" parent="GYayQTxHQQA6wyQ_yWLV-14">
          <mxGeometry x="125" width="42" height="35" as="geometry">
            <mxRectangle width="42" height="35" as="alternateBounds" />
          </mxGeometry>
        </mxCell>
        <mxCell id="GYayQTxHQQA6wyQ_yWLV-35" style="shape=partialRectangle;html=1;whiteSpace=wrap;connectable=0;strokeColor=inherit;overflow=hidden;fillColor=none;top=0;left=0;bottom=0;right=0;pointerEvents=1;fontSize=16;" vertex="1" parent="GYayQTxHQQA6wyQ_yWLV-14">
          <mxGeometry x="167" width="41" height="35" as="geometry">
            <mxRectangle width="41" height="35" as="alternateBounds" />
          </mxGeometry>
        </mxCell>
        <mxCell id="GYayQTxHQQA6wyQ_yWLV-41" style="shape=partialRectangle;html=1;whiteSpace=wrap;connectable=0;strokeColor=inherit;overflow=hidden;fillColor=none;top=0;left=0;bottom=0;right=0;pointerEvents=1;fontSize=16;" vertex="1" parent="GYayQTxHQQA6wyQ_yWLV-14">
          <mxGeometry x="208" width="42" height="35" as="geometry">
            <mxRectangle width="42" height="35" as="alternateBounds" />
          </mxGeometry>
        </mxCell>
        <mxCell id="GYayQTxHQQA6wyQ_yWLV-59" style="shape=partialRectangle;html=1;whiteSpace=wrap;connectable=0;strokeColor=inherit;overflow=hidden;fillColor=none;top=0;left=0;bottom=0;right=0;pointerEvents=1;fontSize=16;" vertex="1" parent="GYayQTxHQQA6wyQ_yWLV-14">
          <mxGeometry x="250" width="42" height="35" as="geometry">
            <mxRectangle width="42" height="35" as="alternateBounds" />
          </mxGeometry>
        </mxCell>
        <mxCell id="GYayQTxHQQA6wyQ_yWLV-65" style="shape=partialRectangle;html=1;whiteSpace=wrap;connectable=0;strokeColor=inherit;overflow=hidden;fillColor=none;top=0;left=0;bottom=0;right=0;pointerEvents=1;fontSize=16;" vertex="1" parent="GYayQTxHQQA6wyQ_yWLV-14">
          <mxGeometry x="292" width="42" height="35" as="geometry">
            <mxRectangle width="42" height="35" as="alternateBounds" />
          </mxGeometry>
        </mxCell>
        <mxCell id="GYayQTxHQQA6wyQ_yWLV-18" style="shape=tableRow;horizontal=0;startSize=0;swimlaneHead=0;swimlaneBody=0;strokeColor=inherit;top=0;left=0;bottom=0;right=0;collapsible=0;dropTarget=0;fillColor=none;points=[[0,0.5],[1,0.5]];portConstraint=eastwest;fontSize=16;" vertex="1" parent="GYayQTxHQQA6wyQ_yWLV-1">
          <mxGeometry y="71" width="334" height="37" as="geometry" />
        </mxCell>
        <mxCell id="GYayQTxHQQA6wyQ_yWLV-54" style="shape=partialRectangle;html=1;whiteSpace=wrap;connectable=0;strokeColor=inherit;overflow=hidden;fillColor=none;top=0;left=0;bottom=0;right=0;pointerEvents=1;fontSize=16;" vertex="1" parent="GYayQTxHQQA6wyQ_yWLV-18">
          <mxGeometry width="42" height="37" as="geometry">
            <mxRectangle width="42" height="37" as="alternateBounds" />
          </mxGeometry>
        </mxCell>
        <mxCell id="GYayQTxHQQA6wyQ_yWLV-19" style="shape=partialRectangle;html=1;whiteSpace=wrap;connectable=0;strokeColor=inherit;overflow=hidden;fillColor=none;top=0;left=0;bottom=0;right=0;pointerEvents=1;fontSize=16;" vertex="1" parent="GYayQTxHQQA6wyQ_yWLV-18">
          <mxGeometry x="42" width="41" height="37" as="geometry">
            <mxRectangle width="41" height="37" as="alternateBounds" />
          </mxGeometry>
        </mxCell>
        <mxCell id="GYayQTxHQQA6wyQ_yWLV-20" style="shape=partialRectangle;html=1;whiteSpace=wrap;connectable=0;strokeColor=inherit;overflow=hidden;fillColor=none;top=0;left=0;bottom=0;right=0;pointerEvents=1;fontSize=16;" vertex="1" parent="GYayQTxHQQA6wyQ_yWLV-18">
          <mxGeometry x="83" width="42" height="37" as="geometry">
            <mxRectangle width="42" height="37" as="alternateBounds" />
          </mxGeometry>
        </mxCell>
        <mxCell id="GYayQTxHQQA6wyQ_yWLV-21" style="shape=partialRectangle;html=1;whiteSpace=wrap;connectable=0;strokeColor=inherit;overflow=hidden;fillColor=none;top=0;left=0;bottom=0;right=0;pointerEvents=1;fontSize=16;" vertex="1" parent="GYayQTxHQQA6wyQ_yWLV-18">
          <mxGeometry x="125" width="42" height="37" as="geometry">
            <mxRectangle width="42" height="37" as="alternateBounds" />
          </mxGeometry>
        </mxCell>
        <mxCell id="GYayQTxHQQA6wyQ_yWLV-36" style="shape=partialRectangle;html=1;whiteSpace=wrap;connectable=0;strokeColor=inherit;overflow=hidden;fillColor=none;top=0;left=0;bottom=0;right=0;pointerEvents=1;fontSize=16;" vertex="1" parent="GYayQTxHQQA6wyQ_yWLV-18">
          <mxGeometry x="167" width="41" height="37" as="geometry">
            <mxRectangle width="41" height="37" as="alternateBounds" />
          </mxGeometry>
        </mxCell>
        <mxCell id="GYayQTxHQQA6wyQ_yWLV-42" style="shape=partialRectangle;html=1;whiteSpace=wrap;connectable=0;strokeColor=inherit;overflow=hidden;fillColor=none;top=0;left=0;bottom=0;right=0;pointerEvents=1;fontSize=16;" vertex="1" parent="GYayQTxHQQA6wyQ_yWLV-18">
          <mxGeometry x="208" width="42" height="37" as="geometry">
            <mxRectangle width="42" height="37" as="alternateBounds" />
          </mxGeometry>
        </mxCell>
        <mxCell id="GYayQTxHQQA6wyQ_yWLV-60" style="shape=partialRectangle;html=1;whiteSpace=wrap;connectable=0;strokeColor=inherit;overflow=hidden;fillColor=none;top=0;left=0;bottom=0;right=0;pointerEvents=1;fontSize=16;" vertex="1" parent="GYayQTxHQQA6wyQ_yWLV-18">
          <mxGeometry x="250" width="42" height="37" as="geometry">
            <mxRectangle width="42" height="37" as="alternateBounds" />
          </mxGeometry>
        </mxCell>
        <mxCell id="GYayQTxHQQA6wyQ_yWLV-66" style="shape=partialRectangle;html=1;whiteSpace=wrap;connectable=0;strokeColor=inherit;overflow=hidden;fillColor=none;top=0;left=0;bottom=0;right=0;pointerEvents=1;fontSize=16;" vertex="1" parent="GYayQTxHQQA6wyQ_yWLV-18">
          <mxGeometry x="292" width="42" height="37" as="geometry">
            <mxRectangle width="42" height="37" as="alternateBounds" />
          </mxGeometry>
        </mxCell>
        <mxCell id="GYayQTxHQQA6wyQ_yWLV-22" style="shape=tableRow;horizontal=0;startSize=0;swimlaneHead=0;swimlaneBody=0;strokeColor=inherit;top=0;left=0;bottom=0;right=0;collapsible=0;dropTarget=0;fillColor=none;points=[[0,0.5],[1,0.5]];portConstraint=eastwest;fontSize=16;" vertex="1" parent="GYayQTxHQQA6wyQ_yWLV-1">
          <mxGeometry y="108" width="334" height="36" as="geometry" />
        </mxCell>
        <mxCell id="GYayQTxHQQA6wyQ_yWLV-55" style="shape=partialRectangle;html=1;whiteSpace=wrap;connectable=0;strokeColor=inherit;overflow=hidden;fillColor=none;top=0;left=0;bottom=0;right=0;pointerEvents=1;fontSize=16;" vertex="1" parent="GYayQTxHQQA6wyQ_yWLV-22">
          <mxGeometry width="42" height="36" as="geometry">
            <mxRectangle width="42" height="36" as="alternateBounds" />
          </mxGeometry>
        </mxCell>
        <mxCell id="GYayQTxHQQA6wyQ_yWLV-23" style="shape=partialRectangle;html=1;whiteSpace=wrap;connectable=0;strokeColor=inherit;overflow=hidden;fillColor=none;top=0;left=0;bottom=0;right=0;pointerEvents=1;fontSize=16;" vertex="1" parent="GYayQTxHQQA6wyQ_yWLV-22">
          <mxGeometry x="42" width="41" height="36" as="geometry">
            <mxRectangle width="41" height="36" as="alternateBounds" />
          </mxGeometry>
        </mxCell>
        <mxCell id="GYayQTxHQQA6wyQ_yWLV-24" style="shape=partialRectangle;html=1;whiteSpace=wrap;connectable=0;strokeColor=inherit;overflow=hidden;fillColor=none;top=0;left=0;bottom=0;right=0;pointerEvents=1;fontSize=16;" vertex="1" parent="GYayQTxHQQA6wyQ_yWLV-22">
          <mxGeometry x="83" width="42" height="36" as="geometry">
            <mxRectangle width="42" height="36" as="alternateBounds" />
          </mxGeometry>
        </mxCell>
        <mxCell id="GYayQTxHQQA6wyQ_yWLV-25" style="shape=partialRectangle;html=1;whiteSpace=wrap;connectable=0;strokeColor=inherit;overflow=hidden;fillColor=none;top=0;left=0;bottom=0;right=0;pointerEvents=1;fontSize=16;" vertex="1" parent="GYayQTxHQQA6wyQ_yWLV-22">
          <mxGeometry x="125" width="42" height="36" as="geometry">
            <mxRectangle width="42" height="36" as="alternateBounds" />
          </mxGeometry>
        </mxCell>
        <mxCell id="GYayQTxHQQA6wyQ_yWLV-37" style="shape=partialRectangle;html=1;whiteSpace=wrap;connectable=0;strokeColor=inherit;overflow=hidden;fillColor=none;top=0;left=0;bottom=0;right=0;pointerEvents=1;fontSize=16;" vertex="1" parent="GYayQTxHQQA6wyQ_yWLV-22">
          <mxGeometry x="167" width="41" height="36" as="geometry">
            <mxRectangle width="41" height="36" as="alternateBounds" />
          </mxGeometry>
        </mxCell>
        <mxCell id="GYayQTxHQQA6wyQ_yWLV-43" style="shape=partialRectangle;html=1;whiteSpace=wrap;connectable=0;strokeColor=inherit;overflow=hidden;fillColor=none;top=0;left=0;bottom=0;right=0;pointerEvents=1;fontSize=16;" vertex="1" parent="GYayQTxHQQA6wyQ_yWLV-22">
          <mxGeometry x="208" width="42" height="36" as="geometry">
            <mxRectangle width="42" height="36" as="alternateBounds" />
          </mxGeometry>
        </mxCell>
        <mxCell id="GYayQTxHQQA6wyQ_yWLV-61" style="shape=partialRectangle;html=1;whiteSpace=wrap;connectable=0;strokeColor=inherit;overflow=hidden;fillColor=none;top=0;left=0;bottom=0;right=0;pointerEvents=1;fontSize=16;" vertex="1" parent="GYayQTxHQQA6wyQ_yWLV-22">
          <mxGeometry x="250" width="42" height="36" as="geometry">
            <mxRectangle width="42" height="36" as="alternateBounds" />
          </mxGeometry>
        </mxCell>
        <mxCell id="GYayQTxHQQA6wyQ_yWLV-67" style="shape=partialRectangle;html=1;whiteSpace=wrap;connectable=0;strokeColor=inherit;overflow=hidden;fillColor=none;top=0;left=0;bottom=0;right=0;pointerEvents=1;fontSize=16;" vertex="1" parent="GYayQTxHQQA6wyQ_yWLV-22">
          <mxGeometry x="292" width="42" height="36" as="geometry">
            <mxRectangle width="42" height="36" as="alternateBounds" />
          </mxGeometry>
        </mxCell>
        <mxCell id="GYayQTxHQQA6wyQ_yWLV-26" style="shape=tableRow;horizontal=0;startSize=0;swimlaneHead=0;swimlaneBody=0;strokeColor=inherit;top=0;left=0;bottom=0;right=0;collapsible=0;dropTarget=0;fillColor=none;points=[[0,0.5],[1,0.5]];portConstraint=eastwest;fontSize=16;" vertex="1" parent="GYayQTxHQQA6wyQ_yWLV-1">
          <mxGeometry y="144" width="334" height="35" as="geometry" />
        </mxCell>
        <mxCell id="GYayQTxHQQA6wyQ_yWLV-56" style="shape=partialRectangle;html=1;whiteSpace=wrap;connectable=0;strokeColor=inherit;overflow=hidden;fillColor=none;top=0;left=0;bottom=0;right=0;pointerEvents=1;fontSize=16;" vertex="1" parent="GYayQTxHQQA6wyQ_yWLV-26">
          <mxGeometry width="42" height="35" as="geometry">
            <mxRectangle width="42" height="35" as="alternateBounds" />
          </mxGeometry>
        </mxCell>
        <mxCell id="GYayQTxHQQA6wyQ_yWLV-27" style="shape=partialRectangle;html=1;whiteSpace=wrap;connectable=0;strokeColor=inherit;overflow=hidden;fillColor=none;top=0;left=0;bottom=0;right=0;pointerEvents=1;fontSize=16;" vertex="1" parent="GYayQTxHQQA6wyQ_yWLV-26">
          <mxGeometry x="42" width="41" height="35" as="geometry">
            <mxRectangle width="41" height="35" as="alternateBounds" />
          </mxGeometry>
        </mxCell>
        <mxCell id="GYayQTxHQQA6wyQ_yWLV-28" style="shape=partialRectangle;html=1;whiteSpace=wrap;connectable=0;strokeColor=inherit;overflow=hidden;fillColor=none;top=0;left=0;bottom=0;right=0;pointerEvents=1;fontSize=16;" vertex="1" parent="GYayQTxHQQA6wyQ_yWLV-26">
          <mxGeometry x="83" width="42" height="35" as="geometry">
            <mxRectangle width="42" height="35" as="alternateBounds" />
          </mxGeometry>
        </mxCell>
        <mxCell id="GYayQTxHQQA6wyQ_yWLV-29" style="shape=partialRectangle;html=1;whiteSpace=wrap;connectable=0;strokeColor=inherit;overflow=hidden;fillColor=none;top=0;left=0;bottom=0;right=0;pointerEvents=1;fontSize=16;" vertex="1" parent="GYayQTxHQQA6wyQ_yWLV-26">
          <mxGeometry x="125" width="42" height="35" as="geometry">
            <mxRectangle width="42" height="35" as="alternateBounds" />
          </mxGeometry>
        </mxCell>
        <mxCell id="GYayQTxHQQA6wyQ_yWLV-38" style="shape=partialRectangle;html=1;whiteSpace=wrap;connectable=0;strokeColor=inherit;overflow=hidden;fillColor=none;top=0;left=0;bottom=0;right=0;pointerEvents=1;fontSize=16;" vertex="1" parent="GYayQTxHQQA6wyQ_yWLV-26">
          <mxGeometry x="167" width="41" height="35" as="geometry">
            <mxRectangle width="41" height="35" as="alternateBounds" />
          </mxGeometry>
        </mxCell>
        <mxCell id="GYayQTxHQQA6wyQ_yWLV-44" style="shape=partialRectangle;html=1;whiteSpace=wrap;connectable=0;strokeColor=inherit;overflow=hidden;fillColor=none;top=0;left=0;bottom=0;right=0;pointerEvents=1;fontSize=16;" vertex="1" parent="GYayQTxHQQA6wyQ_yWLV-26">
          <mxGeometry x="208" width="42" height="35" as="geometry">
            <mxRectangle width="42" height="35" as="alternateBounds" />
          </mxGeometry>
        </mxCell>
        <mxCell id="GYayQTxHQQA6wyQ_yWLV-62" style="shape=partialRectangle;html=1;whiteSpace=wrap;connectable=0;strokeColor=inherit;overflow=hidden;fillColor=none;top=0;left=0;bottom=0;right=0;pointerEvents=1;fontSize=16;" vertex="1" parent="GYayQTxHQQA6wyQ_yWLV-26">
          <mxGeometry x="250" width="42" height="35" as="geometry">
            <mxRectangle width="42" height="35" as="alternateBounds" />
          </mxGeometry>
        </mxCell>
        <mxCell id="GYayQTxHQQA6wyQ_yWLV-68" style="shape=partialRectangle;html=1;whiteSpace=wrap;connectable=0;strokeColor=inherit;overflow=hidden;fillColor=none;top=0;left=0;bottom=0;right=0;pointerEvents=1;fontSize=16;" vertex="1" parent="GYayQTxHQQA6wyQ_yWLV-26">
          <mxGeometry x="292" width="42" height="35" as="geometry">
            <mxRectangle width="42" height="35" as="alternateBounds" />
          </mxGeometry>
        </mxCell>
        <mxCell id="GYayQTxHQQA6wyQ_yWLV-30" style="shape=tableRow;horizontal=0;startSize=0;swimlaneHead=0;swimlaneBody=0;strokeColor=inherit;top=0;left=0;bottom=0;right=0;collapsible=0;dropTarget=0;fillColor=none;points=[[0,0.5],[1,0.5]];portConstraint=eastwest;fontSize=16;" vertex="1" parent="GYayQTxHQQA6wyQ_yWLV-1">
          <mxGeometry y="179" width="334" height="36" as="geometry" />
        </mxCell>
        <mxCell id="GYayQTxHQQA6wyQ_yWLV-57" style="shape=partialRectangle;html=1;whiteSpace=wrap;connectable=0;strokeColor=inherit;overflow=hidden;fillColor=none;top=0;left=0;bottom=0;right=0;pointerEvents=1;fontSize=16;" vertex="1" parent="GYayQTxHQQA6wyQ_yWLV-30">
          <mxGeometry width="42" height="36" as="geometry">
            <mxRectangle width="42" height="36" as="alternateBounds" />
          </mxGeometry>
        </mxCell>
        <mxCell id="GYayQTxHQQA6wyQ_yWLV-31" style="shape=partialRectangle;html=1;whiteSpace=wrap;connectable=0;strokeColor=inherit;overflow=hidden;fillColor=none;top=0;left=0;bottom=0;right=0;pointerEvents=1;fontSize=16;" vertex="1" parent="GYayQTxHQQA6wyQ_yWLV-30">
          <mxGeometry x="42" width="41" height="36" as="geometry">
            <mxRectangle width="41" height="36" as="alternateBounds" />
          </mxGeometry>
        </mxCell>
        <mxCell id="GYayQTxHQQA6wyQ_yWLV-32" style="shape=partialRectangle;html=1;whiteSpace=wrap;connectable=0;strokeColor=inherit;overflow=hidden;fillColor=none;top=0;left=0;bottom=0;right=0;pointerEvents=1;fontSize=16;" vertex="1" parent="GYayQTxHQQA6wyQ_yWLV-30">
          <mxGeometry x="83" width="42" height="36" as="geometry">
            <mxRectangle width="42" height="36" as="alternateBounds" />
          </mxGeometry>
        </mxCell>
        <mxCell id="GYayQTxHQQA6wyQ_yWLV-33" style="shape=partialRectangle;html=1;whiteSpace=wrap;connectable=0;strokeColor=inherit;overflow=hidden;fillColor=none;top=0;left=0;bottom=0;right=0;pointerEvents=1;fontSize=16;" vertex="1" parent="GYayQTxHQQA6wyQ_yWLV-30">
          <mxGeometry x="125" width="42" height="36" as="geometry">
            <mxRectangle width="42" height="36" as="alternateBounds" />
          </mxGeometry>
        </mxCell>
        <mxCell id="GYayQTxHQQA6wyQ_yWLV-39" style="shape=partialRectangle;html=1;whiteSpace=wrap;connectable=0;strokeColor=inherit;overflow=hidden;fillColor=none;top=0;left=0;bottom=0;right=0;pointerEvents=1;fontSize=16;" vertex="1" parent="GYayQTxHQQA6wyQ_yWLV-30">
          <mxGeometry x="167" width="41" height="36" as="geometry">
            <mxRectangle width="41" height="36" as="alternateBounds" />
          </mxGeometry>
        </mxCell>
        <mxCell id="GYayQTxHQQA6wyQ_yWLV-45" style="shape=partialRectangle;html=1;whiteSpace=wrap;connectable=0;strokeColor=inherit;overflow=hidden;fillColor=none;top=0;left=0;bottom=0;right=0;pointerEvents=1;fontSize=16;" vertex="1" parent="GYayQTxHQQA6wyQ_yWLV-30">
          <mxGeometry x="208" width="42" height="36" as="geometry">
            <mxRectangle width="42" height="36" as="alternateBounds" />
          </mxGeometry>
        </mxCell>
        <mxCell id="GYayQTxHQQA6wyQ_yWLV-63" style="shape=partialRectangle;html=1;whiteSpace=wrap;connectable=0;strokeColor=inherit;overflow=hidden;fillColor=none;top=0;left=0;bottom=0;right=0;pointerEvents=1;fontSize=16;" vertex="1" parent="GYayQTxHQQA6wyQ_yWLV-30">
          <mxGeometry x="250" width="42" height="36" as="geometry">
            <mxRectangle width="42" height="36" as="alternateBounds" />
          </mxGeometry>
        </mxCell>
        <mxCell id="GYayQTxHQQA6wyQ_yWLV-69" style="shape=partialRectangle;html=1;whiteSpace=wrap;connectable=0;strokeColor=inherit;overflow=hidden;fillColor=none;top=0;left=0;bottom=0;right=0;pointerEvents=1;fontSize=16;" vertex="1" parent="GYayQTxHQQA6wyQ_yWLV-30">
          <mxGeometry x="292" width="42" height="36" as="geometry">
            <mxRectangle width="42" height="36" as="alternateBounds" />
          </mxGeometry>
        </mxCell>
        <mxCell id="GYayQTxHQQA6wyQ_yWLV-70" value="" style="shape=curlyBracket;whiteSpace=wrap;html=1;rounded=1;labelPosition=left;verticalLabelPosition=middle;align=right;verticalAlign=middle;" vertex="1" parent="1">
          <mxGeometry x="30" y="480" width="20" height="100" as="geometry" />
        </mxCell>
        <mxCell id="GYayQTxHQQA6wyQ_yWLV-71" value="" style="shape=curlyBracket;whiteSpace=wrap;html=1;rounded=1;labelPosition=left;verticalLabelPosition=middle;align=right;verticalAlign=middle;" vertex="1" parent="1">
          <mxGeometry x="30" y="580" width="20" height="80" as="geometry" />
        </mxCell>
        <mxCell id="GYayQTxHQQA6wyQ_yWLV-72" value="" style="shape=curlyBracket;whiteSpace=wrap;html=1;rounded=1;labelPosition=left;verticalLabelPosition=middle;align=right;verticalAlign=middle;" vertex="1" parent="1">
          <mxGeometry x="30" y="660" width="20" height="30" as="geometry" />
        </mxCell>
        <mxCell id="GYayQTxHQQA6wyQ_yWLV-73" value="" style="shape=table;startSize=0;container=1;collapsible=0;childLayout=tableLayout;fontSize=16;" vertex="1" parent="1">
          <mxGeometry x="440" y="480" width="480" height="40" as="geometry" />
        </mxCell>
        <mxCell id="GYayQTxHQQA6wyQ_yWLV-74" value="" style="shape=tableRow;horizontal=0;startSize=0;swimlaneHead=0;swimlaneBody=0;strokeColor=inherit;top=0;left=0;bottom=0;right=0;collapsible=0;dropTarget=0;fillColor=none;points=[[0,0.5],[1,0.5]];portConstraint=eastwest;fontSize=16;" vertex="1" parent="GYayQTxHQQA6wyQ_yWLV-73">
          <mxGeometry width="480" height="40" as="geometry" />
        </mxCell>
        <mxCell id="GYayQTxHQQA6wyQ_yWLV-75" value="" style="shape=partialRectangle;html=1;whiteSpace=wrap;connectable=0;strokeColor=#b85450;overflow=hidden;fillColor=#f8cecc;top=0;left=0;bottom=0;right=0;pointerEvents=1;fontSize=16;" vertex="1" parent="GYayQTxHQQA6wyQ_yWLV-74">
          <mxGeometry width="60" height="40" as="geometry">
            <mxRectangle width="60" height="40" as="alternateBounds" />
          </mxGeometry>
        </mxCell>
        <mxCell id="GYayQTxHQQA6wyQ_yWLV-76" value="" style="shape=partialRectangle;html=1;whiteSpace=wrap;connectable=0;strokeColor=#b85450;overflow=hidden;fillColor=#f8cecc;top=0;left=0;bottom=0;right=0;pointerEvents=1;fontSize=16;" vertex="1" parent="GYayQTxHQQA6wyQ_yWLV-74">
          <mxGeometry x="60" width="60" height="40" as="geometry">
            <mxRectangle width="60" height="40" as="alternateBounds" />
          </mxGeometry>
        </mxCell>
        <mxCell id="GYayQTxHQQA6wyQ_yWLV-92" style="shape=partialRectangle;html=1;whiteSpace=wrap;connectable=0;strokeColor=#36393d;overflow=hidden;fillColor=#ffcc99;top=0;left=0;bottom=0;right=0;pointerEvents=1;fontSize=16;" vertex="1" parent="GYayQTxHQQA6wyQ_yWLV-74">
          <mxGeometry x="120" width="60" height="40" as="geometry">
            <mxRectangle width="60" height="40" as="alternateBounds" />
          </mxGeometry>
        </mxCell>
        <mxCell id="GYayQTxHQQA6wyQ_yWLV-93" style="shape=partialRectangle;html=1;whiteSpace=wrap;connectable=0;strokeColor=#82b366;overflow=hidden;fillColor=#d5e8d4;top=0;left=0;bottom=0;right=0;pointerEvents=1;fontSize=16;" vertex="1" parent="GYayQTxHQQA6wyQ_yWLV-74">
          <mxGeometry x="180" width="60" height="40" as="geometry">
            <mxRectangle width="60" height="40" as="alternateBounds" />
          </mxGeometry>
        </mxCell>
        <mxCell id="GYayQTxHQQA6wyQ_yWLV-94" style="shape=partialRectangle;html=1;whiteSpace=wrap;connectable=0;strokeColor=#82b366;overflow=hidden;fillColor=#d5e8d4;top=0;left=0;bottom=0;right=0;pointerEvents=1;fontSize=16;" vertex="1" parent="GYayQTxHQQA6wyQ_yWLV-74">
          <mxGeometry x="240" width="60" height="40" as="geometry">
            <mxRectangle width="60" height="40" as="alternateBounds" />
          </mxGeometry>
        </mxCell>
        <mxCell id="GYayQTxHQQA6wyQ_yWLV-95" style="shape=partialRectangle;html=1;whiteSpace=wrap;connectable=0;strokeColor=#82b366;overflow=hidden;fillColor=#d5e8d4;top=0;left=0;bottom=0;right=0;pointerEvents=1;fontSize=16;" vertex="1" parent="GYayQTxHQQA6wyQ_yWLV-74">
          <mxGeometry x="300" width="60" height="40" as="geometry">
            <mxRectangle width="60" height="40" as="alternateBounds" />
          </mxGeometry>
        </mxCell>
        <mxCell id="GYayQTxHQQA6wyQ_yWLV-96" style="shape=partialRectangle;html=1;whiteSpace=wrap;connectable=0;strokeColor=#82b366;overflow=hidden;fillColor=#d5e8d4;top=0;left=0;bottom=0;right=0;pointerEvents=1;fontSize=16;" vertex="1" parent="GYayQTxHQQA6wyQ_yWLV-74">
          <mxGeometry x="360" width="60" height="40" as="geometry">
            <mxRectangle width="60" height="40" as="alternateBounds" />
          </mxGeometry>
        </mxCell>
        <mxCell id="GYayQTxHQQA6wyQ_yWLV-97" style="shape=partialRectangle;html=1;whiteSpace=wrap;connectable=0;strokeColor=#82b366;overflow=hidden;fillColor=#d5e8d4;top=0;left=0;bottom=0;right=0;pointerEvents=1;fontSize=16;" vertex="1" parent="GYayQTxHQQA6wyQ_yWLV-74">
          <mxGeometry x="420" width="60" height="40" as="geometry">
            <mxRectangle width="60" height="40" as="alternateBounds" />
          </mxGeometry>
        </mxCell>
        <mxCell id="GYayQTxHQQA6wyQ_yWLV-98" value="" style="endArrow=classic;html=1;rounded=0;dashed=1;entryX=0.253;entryY=-0.075;entryDx=0;entryDy=0;entryPerimeter=0;strokeColor=#FF0000;" edge="1" parent="1" target="GYayQTxHQQA6wyQ_yWLV-74">
          <mxGeometry width="50" height="50" relative="1" as="geometry">
            <mxPoint x="561" y="400" as="sourcePoint" />
            <mxPoint x="440" y="680" as="targetPoint" />
          </mxGeometry>
        </mxCell>
        <mxCell id="GYayQTxHQQA6wyQ_yWLV-99" value="" style="endArrow=classic;html=1;rounded=0;entryX=0.372;entryY=-0.008;entryDx=0;entryDy=0;entryPerimeter=0;strokeColor=#FF0000;" edge="1" parent="1" target="GYayQTxHQQA6wyQ_yWLV-74">
          <mxGeometry width="50" height="50" relative="1" as="geometry">
            <mxPoint x="619" y="400" as="sourcePoint" />
            <mxPoint x="440" y="680" as="targetPoint" />
          </mxGeometry>
        </mxCell>
        <mxCell id="GYayQTxHQQA6wyQ_yWLV-101" value="Counter ++" style="rounded=1;whiteSpace=wrap;html=1;fontSize=18;fillColor=#bac8d3;strokeColor=#23445d;" vertex="1" parent="1">
          <mxGeometry x="540" y="360" width="110" height="30" as="geometry" />
        </mxCell>
        <mxCell id="GYayQTxHQQA6wyQ_yWLV-102" value="" style="shape=curlyBracket;whiteSpace=wrap;html=1;rounded=1;flipH=1;labelPosition=right;verticalLabelPosition=middle;align=left;verticalAlign=middle;direction=south;" vertex="1" parent="1">
          <mxGeometry x="620" y="440" width="300" height="20" as="geometry" />
        </mxCell>
        <mxCell id="GYayQTxHQQA6wyQ_yWLV-103" value="Free Tile List" style="text;html=1;align=center;verticalAlign=middle;whiteSpace=wrap;rounded=0;fontSize=20;" vertex="1" parent="1">
          <mxGeometry x="700" y="400" width="140" height="30" as="geometry" />
        </mxCell>
        <mxCell id="GYayQTxHQQA6wyQ_yWLV-117" value="" style="shape=table;startSize=0;container=1;collapsible=0;childLayout=tableLayout;fontSize=16;fillColor=#dae8fc;strokeColor=#6c8ebf;" vertex="1" parent="1">
          <mxGeometry x="440" y="570" width="180" height="120" as="geometry" />
        </mxCell>
        <mxCell id="GYayQTxHQQA6wyQ_yWLV-118" value="" style="shape=tableRow;horizontal=0;startSize=0;swimlaneHead=0;swimlaneBody=0;strokeColor=inherit;top=0;left=0;bottom=0;right=0;collapsible=0;dropTarget=0;fillColor=none;points=[[0,0.5],[1,0.5]];portConstraint=eastwest;fontSize=16;" vertex="1" parent="GYayQTxHQQA6wyQ_yWLV-117">
          <mxGeometry width="180" height="40" as="geometry" />
        </mxCell>
        <mxCell id="GYayQTxHQQA6wyQ_yWLV-119" value="" style="shape=partialRectangle;html=1;whiteSpace=wrap;connectable=0;strokeColor=inherit;overflow=hidden;fillColor=none;top=0;left=0;bottom=0;right=0;pointerEvents=1;fontSize=16;" vertex="1" parent="GYayQTxHQQA6wyQ_yWLV-118">
          <mxGeometry width="60" height="40" as="geometry">
            <mxRectangle width="60" height="40" as="alternateBounds" />
          </mxGeometry>
        </mxCell>
        <mxCell id="GYayQTxHQQA6wyQ_yWLV-120" value="" style="shape=partialRectangle;html=1;whiteSpace=wrap;connectable=0;strokeColor=inherit;overflow=hidden;fillColor=none;top=0;left=0;bottom=0;right=0;pointerEvents=1;fontSize=16;" vertex="1" parent="GYayQTxHQQA6wyQ_yWLV-118">
          <mxGeometry x="60" width="60" height="40" as="geometry">
            <mxRectangle width="60" height="40" as="alternateBounds" />
          </mxGeometry>
        </mxCell>
        <mxCell id="GYayQTxHQQA6wyQ_yWLV-121" value="" style="shape=partialRectangle;html=1;whiteSpace=wrap;connectable=0;strokeColor=inherit;overflow=hidden;fillColor=none;top=0;left=0;bottom=0;right=0;pointerEvents=1;fontSize=16;" vertex="1" parent="GYayQTxHQQA6wyQ_yWLV-118">
          <mxGeometry x="120" width="60" height="40" as="geometry">
            <mxRectangle width="60" height="40" as="alternateBounds" />
          </mxGeometry>
        </mxCell>
        <mxCell id="GYayQTxHQQA6wyQ_yWLV-122" value="" style="shape=tableRow;horizontal=0;startSize=0;swimlaneHead=0;swimlaneBody=0;strokeColor=inherit;top=0;left=0;bottom=0;right=0;collapsible=0;dropTarget=0;fillColor=none;points=[[0,0.5],[1,0.5]];portConstraint=eastwest;fontSize=16;" vertex="1" parent="GYayQTxHQQA6wyQ_yWLV-117">
          <mxGeometry y="40" width="180" height="40" as="geometry" />
        </mxCell>
        <mxCell id="GYayQTxHQQA6wyQ_yWLV-123" value="" style="shape=partialRectangle;html=1;whiteSpace=wrap;connectable=0;strokeColor=inherit;overflow=hidden;fillColor=none;top=0;left=0;bottom=0;right=0;pointerEvents=1;fontSize=16;" vertex="1" parent="GYayQTxHQQA6wyQ_yWLV-122">
          <mxGeometry width="60" height="40" as="geometry">
            <mxRectangle width="60" height="40" as="alternateBounds" />
          </mxGeometry>
        </mxCell>
        <mxCell id="GYayQTxHQQA6wyQ_yWLV-124" value="" style="shape=partialRectangle;html=1;whiteSpace=wrap;connectable=0;strokeColor=inherit;overflow=hidden;fillColor=none;top=0;left=0;bottom=0;right=0;pointerEvents=1;fontSize=16;" vertex="1" parent="GYayQTxHQQA6wyQ_yWLV-122">
          <mxGeometry x="60" width="60" height="40" as="geometry">
            <mxRectangle width="60" height="40" as="alternateBounds" />
          </mxGeometry>
        </mxCell>
        <mxCell id="GYayQTxHQQA6wyQ_yWLV-125" value="" style="shape=partialRectangle;html=1;whiteSpace=wrap;connectable=0;strokeColor=inherit;overflow=hidden;fillColor=none;top=0;left=0;bottom=0;right=0;pointerEvents=1;fontSize=16;" vertex="1" parent="GYayQTxHQQA6wyQ_yWLV-122">
          <mxGeometry x="120" width="60" height="40" as="geometry">
            <mxRectangle width="60" height="40" as="alternateBounds" />
          </mxGeometry>
        </mxCell>
        <mxCell id="GYayQTxHQQA6wyQ_yWLV-126" value="" style="shape=tableRow;horizontal=0;startSize=0;swimlaneHead=0;swimlaneBody=0;strokeColor=inherit;top=0;left=0;bottom=0;right=0;collapsible=0;dropTarget=0;fillColor=none;points=[[0,0.5],[1,0.5]];portConstraint=eastwest;fontSize=16;" vertex="1" parent="GYayQTxHQQA6wyQ_yWLV-117">
          <mxGeometry y="80" width="180" height="40" as="geometry" />
        </mxCell>
        <mxCell id="GYayQTxHQQA6wyQ_yWLV-127" value="" style="shape=partialRectangle;html=1;whiteSpace=wrap;connectable=0;strokeColor=inherit;overflow=hidden;fillColor=none;top=0;left=0;bottom=0;right=0;pointerEvents=1;fontSize=16;" vertex="1" parent="GYayQTxHQQA6wyQ_yWLV-126">
          <mxGeometry width="60" height="40" as="geometry">
            <mxRectangle width="60" height="40" as="alternateBounds" />
          </mxGeometry>
        </mxCell>
        <mxCell id="GYayQTxHQQA6wyQ_yWLV-128" value="" style="shape=partialRectangle;html=1;whiteSpace=wrap;connectable=0;strokeColor=inherit;overflow=hidden;fillColor=none;top=0;left=0;bottom=0;right=0;pointerEvents=1;fontSize=16;" vertex="1" parent="GYayQTxHQQA6wyQ_yWLV-126">
          <mxGeometry x="60" width="60" height="40" as="geometry">
            <mxRectangle width="60" height="40" as="alternateBounds" />
          </mxGeometry>
        </mxCell>
        <mxCell id="GYayQTxHQQA6wyQ_yWLV-129" value="" style="shape=partialRectangle;html=1;whiteSpace=wrap;connectable=0;strokeColor=inherit;overflow=hidden;fillColor=none;top=0;left=0;bottom=0;right=0;pointerEvents=1;fontSize=16;" vertex="1" parent="GYayQTxHQQA6wyQ_yWLV-126">
          <mxGeometry x="120" width="60" height="40" as="geometry">
            <mxRectangle width="60" height="40" as="alternateBounds" />
          </mxGeometry>
        </mxCell>
        <mxCell id="GYayQTxHQQA6wyQ_yWLV-132" value="" style="shape=curlyBracket;whiteSpace=wrap;html=1;rounded=1;flipH=1;labelPosition=right;verticalLabelPosition=middle;align=left;verticalAlign=middle;" vertex="1" parent="1">
          <mxGeometry x="620" y="570" width="20" height="120" as="geometry" />
        </mxCell>
        <mxCell id="GYayQTxHQQA6wyQ_yWLV-133" value="Physical Tile Pool" style="text;html=1;align=center;verticalAlign=middle;whiteSpace=wrap;rounded=0;fontSize=20;" vertex="1" parent="1">
          <mxGeometry x="660" y="615" width="240" height="30" as="geometry" />
        </mxCell>
        <mxCell id="GYayQTxHQQA6wyQ_yWLV-135" value="&lt;b&gt;Current Frame&lt;/b&gt; Virtual Tile Table" style="text;html=1;align=center;verticalAlign=middle;whiteSpace=wrap;rounded=0;fontSize=20;" vertex="1" parent="1">
          <mxGeometry x="61" y="430" width="323" height="30" as="geometry" />
        </mxCell>
        <mxCell id="GYayQTxHQQA6wyQ_yWLV-136" value="" style="endArrow=classic;html=1;rounded=0;exitX=0.313;exitY=1.092;exitDx=0;exitDy=0;exitPerimeter=0;strokeColor=#FF0000;" edge="1" parent="1" source="GYayQTxHQQA6wyQ_yWLV-73" target="GYayQTxHQQA6wyQ_yWLV-26">
          <mxGeometry width="50" height="50" relative="1" as="geometry">
            <mxPoint x="390" y="730" as="sourcePoint" />
            <mxPoint x="440" y="680" as="targetPoint" />
          </mxGeometry>
        </mxCell>
        <mxCell id="GYayQTxHQQA6wyQ_yWLV-137" value="Allocate" style="text;html=1;align=center;verticalAlign=middle;whiteSpace=wrap;rounded=0;" vertex="1" parent="1">
          <mxGeometry x="560" y="420" width="60" height="30" as="geometry" />
        </mxCell>
        <mxCell id="GYayQTxHQQA6wyQ_yWLV-138" value="Level 6" style="text;html=1;align=center;verticalAlign=middle;whiteSpace=wrap;rounded=0;" vertex="1" parent="1">
          <mxGeometry x="-40" y="515" width="60" height="30" as="geometry" />
        </mxCell>
        <mxCell id="GYayQTxHQQA6wyQ_yWLV-139" value="Level 7" style="text;html=1;align=center;verticalAlign=middle;whiteSpace=wrap;rounded=0;" vertex="1" parent="1">
          <mxGeometry x="-40" y="605" width="60" height="30" as="geometry" />
        </mxCell>
        <mxCell id="GYayQTxHQQA6wyQ_yWLV-140" value="Level 8" style="text;html=1;align=center;verticalAlign=middle;whiteSpace=wrap;rounded=0;" vertex="1" parent="1">
          <mxGeometry x="-40" y="660" width="60" height="30" as="geometry" />
        </mxCell>
        <mxCell id="GYayQTxHQQA6wyQ_yWLV-142" value="Allocate Physical Tile" style="text;strokeColor=none;fillColor=none;html=1;fontSize=24;fontStyle=1;verticalAlign=middle;align=center;" vertex="1" parent="1">
          <mxGeometry x="364" y="310" width="100" height="40" as="geometry" />
        </mxCell>
        <mxCell id="GYayQTxHQQA6wyQ_yWLV-143" value="" style="rounded=0;whiteSpace=wrap;html=1;fillColor=#cce5ff;strokeColor=#36393d;" vertex="1" parent="1">
          <mxGeometry x="-40" y="770" width="980" height="435" as="geometry" />
        </mxCell>
        <mxCell id="GYayQTxHQQA6wyQ_yWLV-144" value="" style="shape=table;startSize=0;container=1;collapsible=0;childLayout=tableLayout;fontSize=16;fillColor=#ffe6cc;strokeColor=#d79b00;" vertex="1" parent="1">
          <mxGeometry x="50" y="945" width="334" height="215" as="geometry" />
        </mxCell>
        <mxCell id="GYayQTxHQQA6wyQ_yWLV-145" value="" style="shape=tableRow;horizontal=0;startSize=0;swimlaneHead=0;swimlaneBody=0;strokeColor=inherit;top=0;left=0;bottom=0;right=0;collapsible=0;dropTarget=0;fillColor=none;points=[[0,0.5],[1,0.5]];portConstraint=eastwest;fontSize=16;" vertex="1" parent="GYayQTxHQQA6wyQ_yWLV-144">
          <mxGeometry width="334" height="36" as="geometry" />
        </mxCell>
        <mxCell id="GYayQTxHQQA6wyQ_yWLV-146" style="shape=partialRectangle;html=1;whiteSpace=wrap;connectable=0;strokeColor=inherit;overflow=hidden;fillColor=none;top=0;left=0;bottom=0;right=0;pointerEvents=1;fontSize=16;" vertex="1" parent="GYayQTxHQQA6wyQ_yWLV-145">
          <mxGeometry width="42" height="36" as="geometry">
            <mxRectangle width="42" height="36" as="alternateBounds" />
          </mxGeometry>
        </mxCell>
        <mxCell id="GYayQTxHQQA6wyQ_yWLV-147" value="" style="shape=partialRectangle;html=1;whiteSpace=wrap;connectable=0;strokeColor=inherit;overflow=hidden;fillColor=none;top=0;left=0;bottom=0;right=0;pointerEvents=1;fontSize=16;" vertex="1" parent="GYayQTxHQQA6wyQ_yWLV-145">
          <mxGeometry x="42" width="41" height="36" as="geometry">
            <mxRectangle width="41" height="36" as="alternateBounds" />
          </mxGeometry>
        </mxCell>
        <mxCell id="GYayQTxHQQA6wyQ_yWLV-148" value="" style="shape=partialRectangle;html=1;whiteSpace=wrap;connectable=0;strokeColor=inherit;overflow=hidden;fillColor=none;top=0;left=0;bottom=0;right=0;pointerEvents=1;fontSize=16;" vertex="1" parent="GYayQTxHQQA6wyQ_yWLV-145">
          <mxGeometry x="83" width="42" height="36" as="geometry">
            <mxRectangle width="42" height="36" as="alternateBounds" />
          </mxGeometry>
        </mxCell>
        <mxCell id="GYayQTxHQQA6wyQ_yWLV-149" value="" style="shape=partialRectangle;html=1;whiteSpace=wrap;connectable=0;strokeColor=inherit;overflow=hidden;fillColor=none;top=0;left=0;bottom=0;right=0;pointerEvents=1;fontSize=16;" vertex="1" parent="GYayQTxHQQA6wyQ_yWLV-145">
          <mxGeometry x="125" width="42" height="36" as="geometry">
            <mxRectangle width="42" height="36" as="alternateBounds" />
          </mxGeometry>
        </mxCell>
        <mxCell id="GYayQTxHQQA6wyQ_yWLV-150" style="shape=partialRectangle;html=1;whiteSpace=wrap;connectable=0;strokeColor=inherit;overflow=hidden;fillColor=none;top=0;left=0;bottom=0;right=0;pointerEvents=1;fontSize=16;" vertex="1" parent="GYayQTxHQQA6wyQ_yWLV-145">
          <mxGeometry x="167" width="41" height="36" as="geometry">
            <mxRectangle width="41" height="36" as="alternateBounds" />
          </mxGeometry>
        </mxCell>
        <mxCell id="GYayQTxHQQA6wyQ_yWLV-151" style="shape=partialRectangle;html=1;whiteSpace=wrap;connectable=0;strokeColor=inherit;overflow=hidden;fillColor=none;top=0;left=0;bottom=0;right=0;pointerEvents=1;fontSize=16;" vertex="1" parent="GYayQTxHQQA6wyQ_yWLV-145">
          <mxGeometry x="208" width="42" height="36" as="geometry">
            <mxRectangle width="42" height="36" as="alternateBounds" />
          </mxGeometry>
        </mxCell>
        <mxCell id="GYayQTxHQQA6wyQ_yWLV-152" style="shape=partialRectangle;html=1;whiteSpace=wrap;connectable=0;strokeColor=inherit;overflow=hidden;fillColor=none;top=0;left=0;bottom=0;right=0;pointerEvents=1;fontSize=16;" vertex="1" parent="GYayQTxHQQA6wyQ_yWLV-145">
          <mxGeometry x="250" width="42" height="36" as="geometry">
            <mxRectangle width="42" height="36" as="alternateBounds" />
          </mxGeometry>
        </mxCell>
        <mxCell id="GYayQTxHQQA6wyQ_yWLV-153" style="shape=partialRectangle;html=1;whiteSpace=wrap;connectable=0;strokeColor=inherit;overflow=hidden;fillColor=none;top=0;left=0;bottom=0;right=0;pointerEvents=1;fontSize=16;" vertex="1" parent="GYayQTxHQQA6wyQ_yWLV-145">
          <mxGeometry x="292" width="42" height="36" as="geometry">
            <mxRectangle width="42" height="36" as="alternateBounds" />
          </mxGeometry>
        </mxCell>
        <mxCell id="GYayQTxHQQA6wyQ_yWLV-154" style="shape=tableRow;horizontal=0;startSize=0;swimlaneHead=0;swimlaneBody=0;strokeColor=inherit;top=0;left=0;bottom=0;right=0;collapsible=0;dropTarget=0;fillColor=none;points=[[0,0.5],[1,0.5]];portConstraint=eastwest;fontSize=16;" vertex="1" parent="GYayQTxHQQA6wyQ_yWLV-144">
          <mxGeometry y="36" width="334" height="35" as="geometry" />
        </mxCell>
        <mxCell id="GYayQTxHQQA6wyQ_yWLV-155" style="shape=partialRectangle;html=1;whiteSpace=wrap;connectable=0;strokeColor=inherit;overflow=hidden;fillColor=none;top=0;left=0;bottom=0;right=0;pointerEvents=1;fontSize=16;" vertex="1" parent="GYayQTxHQQA6wyQ_yWLV-154">
          <mxGeometry width="42" height="35" as="geometry">
            <mxRectangle width="42" height="35" as="alternateBounds" />
          </mxGeometry>
        </mxCell>
        <mxCell id="GYayQTxHQQA6wyQ_yWLV-156" style="shape=partialRectangle;html=1;whiteSpace=wrap;connectable=0;strokeColor=inherit;overflow=hidden;fillColor=none;top=0;left=0;bottom=0;right=0;pointerEvents=1;fontSize=16;" vertex="1" parent="GYayQTxHQQA6wyQ_yWLV-154">
          <mxGeometry x="42" width="41" height="35" as="geometry">
            <mxRectangle width="41" height="35" as="alternateBounds" />
          </mxGeometry>
        </mxCell>
        <mxCell id="GYayQTxHQQA6wyQ_yWLV-157" style="shape=partialRectangle;html=1;whiteSpace=wrap;connectable=0;strokeColor=inherit;overflow=hidden;fillColor=none;top=0;left=0;bottom=0;right=0;pointerEvents=1;fontSize=16;" vertex="1" parent="GYayQTxHQQA6wyQ_yWLV-154">
          <mxGeometry x="83" width="42" height="35" as="geometry">
            <mxRectangle width="42" height="35" as="alternateBounds" />
          </mxGeometry>
        </mxCell>
        <mxCell id="GYayQTxHQQA6wyQ_yWLV-158" style="shape=partialRectangle;html=1;whiteSpace=wrap;connectable=0;strokeColor=inherit;overflow=hidden;fillColor=none;top=0;left=0;bottom=0;right=0;pointerEvents=1;fontSize=16;" vertex="1" parent="GYayQTxHQQA6wyQ_yWLV-154">
          <mxGeometry x="125" width="42" height="35" as="geometry">
            <mxRectangle width="42" height="35" as="alternateBounds" />
          </mxGeometry>
        </mxCell>
        <mxCell id="GYayQTxHQQA6wyQ_yWLV-159" style="shape=partialRectangle;html=1;whiteSpace=wrap;connectable=0;strokeColor=inherit;overflow=hidden;fillColor=none;top=0;left=0;bottom=0;right=0;pointerEvents=1;fontSize=16;" vertex="1" parent="GYayQTxHQQA6wyQ_yWLV-154">
          <mxGeometry x="167" width="41" height="35" as="geometry">
            <mxRectangle width="41" height="35" as="alternateBounds" />
          </mxGeometry>
        </mxCell>
        <mxCell id="GYayQTxHQQA6wyQ_yWLV-160" style="shape=partialRectangle;html=1;whiteSpace=wrap;connectable=0;strokeColor=inherit;overflow=hidden;fillColor=none;top=0;left=0;bottom=0;right=0;pointerEvents=1;fontSize=16;" vertex="1" parent="GYayQTxHQQA6wyQ_yWLV-154">
          <mxGeometry x="208" width="42" height="35" as="geometry">
            <mxRectangle width="42" height="35" as="alternateBounds" />
          </mxGeometry>
        </mxCell>
        <mxCell id="GYayQTxHQQA6wyQ_yWLV-161" style="shape=partialRectangle;html=1;whiteSpace=wrap;connectable=0;strokeColor=inherit;overflow=hidden;fillColor=none;top=0;left=0;bottom=0;right=0;pointerEvents=1;fontSize=16;" vertex="1" parent="GYayQTxHQQA6wyQ_yWLV-154">
          <mxGeometry x="250" width="42" height="35" as="geometry">
            <mxRectangle width="42" height="35" as="alternateBounds" />
          </mxGeometry>
        </mxCell>
        <mxCell id="GYayQTxHQQA6wyQ_yWLV-162" style="shape=partialRectangle;html=1;whiteSpace=wrap;connectable=0;strokeColor=inherit;overflow=hidden;fillColor=none;top=0;left=0;bottom=0;right=0;pointerEvents=1;fontSize=16;" vertex="1" parent="GYayQTxHQQA6wyQ_yWLV-154">
          <mxGeometry x="292" width="42" height="35" as="geometry">
            <mxRectangle width="42" height="35" as="alternateBounds" />
          </mxGeometry>
        </mxCell>
        <mxCell id="GYayQTxHQQA6wyQ_yWLV-163" style="shape=tableRow;horizontal=0;startSize=0;swimlaneHead=0;swimlaneBody=0;strokeColor=inherit;top=0;left=0;bottom=0;right=0;collapsible=0;dropTarget=0;fillColor=none;points=[[0,0.5],[1,0.5]];portConstraint=eastwest;fontSize=16;" vertex="1" parent="GYayQTxHQQA6wyQ_yWLV-144">
          <mxGeometry y="71" width="334" height="37" as="geometry" />
        </mxCell>
        <mxCell id="GYayQTxHQQA6wyQ_yWLV-164" style="shape=partialRectangle;html=1;whiteSpace=wrap;connectable=0;strokeColor=inherit;overflow=hidden;fillColor=none;top=0;left=0;bottom=0;right=0;pointerEvents=1;fontSize=16;" vertex="1" parent="GYayQTxHQQA6wyQ_yWLV-163">
          <mxGeometry width="42" height="37" as="geometry">
            <mxRectangle width="42" height="37" as="alternateBounds" />
          </mxGeometry>
        </mxCell>
        <mxCell id="GYayQTxHQQA6wyQ_yWLV-165" style="shape=partialRectangle;html=1;whiteSpace=wrap;connectable=0;strokeColor=inherit;overflow=hidden;fillColor=none;top=0;left=0;bottom=0;right=0;pointerEvents=1;fontSize=16;" vertex="1" parent="GYayQTxHQQA6wyQ_yWLV-163">
          <mxGeometry x="42" width="41" height="37" as="geometry">
            <mxRectangle width="41" height="37" as="alternateBounds" />
          </mxGeometry>
        </mxCell>
        <mxCell id="GYayQTxHQQA6wyQ_yWLV-166" style="shape=partialRectangle;html=1;whiteSpace=wrap;connectable=0;strokeColor=inherit;overflow=hidden;fillColor=none;top=0;left=0;bottom=0;right=0;pointerEvents=1;fontSize=16;" vertex="1" parent="GYayQTxHQQA6wyQ_yWLV-163">
          <mxGeometry x="83" width="42" height="37" as="geometry">
            <mxRectangle width="42" height="37" as="alternateBounds" />
          </mxGeometry>
        </mxCell>
        <mxCell id="GYayQTxHQQA6wyQ_yWLV-167" style="shape=partialRectangle;html=1;whiteSpace=wrap;connectable=0;strokeColor=inherit;overflow=hidden;fillColor=none;top=0;left=0;bottom=0;right=0;pointerEvents=1;fontSize=16;" vertex="1" parent="GYayQTxHQQA6wyQ_yWLV-163">
          <mxGeometry x="125" width="42" height="37" as="geometry">
            <mxRectangle width="42" height="37" as="alternateBounds" />
          </mxGeometry>
        </mxCell>
        <mxCell id="GYayQTxHQQA6wyQ_yWLV-168" style="shape=partialRectangle;html=1;whiteSpace=wrap;connectable=0;strokeColor=inherit;overflow=hidden;fillColor=none;top=0;left=0;bottom=0;right=0;pointerEvents=1;fontSize=16;" vertex="1" parent="GYayQTxHQQA6wyQ_yWLV-163">
          <mxGeometry x="167" width="41" height="37" as="geometry">
            <mxRectangle width="41" height="37" as="alternateBounds" />
          </mxGeometry>
        </mxCell>
        <mxCell id="GYayQTxHQQA6wyQ_yWLV-169" style="shape=partialRectangle;html=1;whiteSpace=wrap;connectable=0;strokeColor=inherit;overflow=hidden;fillColor=none;top=0;left=0;bottom=0;right=0;pointerEvents=1;fontSize=16;" vertex="1" parent="GYayQTxHQQA6wyQ_yWLV-163">
          <mxGeometry x="208" width="42" height="37" as="geometry">
            <mxRectangle width="42" height="37" as="alternateBounds" />
          </mxGeometry>
        </mxCell>
        <mxCell id="GYayQTxHQQA6wyQ_yWLV-170" style="shape=partialRectangle;html=1;whiteSpace=wrap;connectable=0;strokeColor=inherit;overflow=hidden;fillColor=none;top=0;left=0;bottom=0;right=0;pointerEvents=1;fontSize=16;" vertex="1" parent="GYayQTxHQQA6wyQ_yWLV-163">
          <mxGeometry x="250" width="42" height="37" as="geometry">
            <mxRectangle width="42" height="37" as="alternateBounds" />
          </mxGeometry>
        </mxCell>
        <mxCell id="GYayQTxHQQA6wyQ_yWLV-171" style="shape=partialRectangle;html=1;whiteSpace=wrap;connectable=0;strokeColor=inherit;overflow=hidden;fillColor=none;top=0;left=0;bottom=0;right=0;pointerEvents=1;fontSize=16;" vertex="1" parent="GYayQTxHQQA6wyQ_yWLV-163">
          <mxGeometry x="292" width="42" height="37" as="geometry">
            <mxRectangle width="42" height="37" as="alternateBounds" />
          </mxGeometry>
        </mxCell>
        <mxCell id="GYayQTxHQQA6wyQ_yWLV-172" style="shape=tableRow;horizontal=0;startSize=0;swimlaneHead=0;swimlaneBody=0;strokeColor=inherit;top=0;left=0;bottom=0;right=0;collapsible=0;dropTarget=0;fillColor=none;points=[[0,0.5],[1,0.5]];portConstraint=eastwest;fontSize=16;" vertex="1" parent="GYayQTxHQQA6wyQ_yWLV-144">
          <mxGeometry y="108" width="334" height="36" as="geometry" />
        </mxCell>
        <mxCell id="GYayQTxHQQA6wyQ_yWLV-173" style="shape=partialRectangle;html=1;whiteSpace=wrap;connectable=0;strokeColor=inherit;overflow=hidden;fillColor=none;top=0;left=0;bottom=0;right=0;pointerEvents=1;fontSize=16;" vertex="1" parent="GYayQTxHQQA6wyQ_yWLV-172">
          <mxGeometry width="42" height="36" as="geometry">
            <mxRectangle width="42" height="36" as="alternateBounds" />
          </mxGeometry>
        </mxCell>
        <mxCell id="GYayQTxHQQA6wyQ_yWLV-174" style="shape=partialRectangle;html=1;whiteSpace=wrap;connectable=0;strokeColor=inherit;overflow=hidden;fillColor=none;top=0;left=0;bottom=0;right=0;pointerEvents=1;fontSize=16;" vertex="1" parent="GYayQTxHQQA6wyQ_yWLV-172">
          <mxGeometry x="42" width="41" height="36" as="geometry">
            <mxRectangle width="41" height="36" as="alternateBounds" />
          </mxGeometry>
        </mxCell>
        <mxCell id="GYayQTxHQQA6wyQ_yWLV-175" style="shape=partialRectangle;html=1;whiteSpace=wrap;connectable=0;strokeColor=inherit;overflow=hidden;fillColor=none;top=0;left=0;bottom=0;right=0;pointerEvents=1;fontSize=16;" vertex="1" parent="GYayQTxHQQA6wyQ_yWLV-172">
          <mxGeometry x="83" width="42" height="36" as="geometry">
            <mxRectangle width="42" height="36" as="alternateBounds" />
          </mxGeometry>
        </mxCell>
        <mxCell id="GYayQTxHQQA6wyQ_yWLV-176" style="shape=partialRectangle;html=1;whiteSpace=wrap;connectable=0;strokeColor=inherit;overflow=hidden;fillColor=none;top=0;left=0;bottom=0;right=0;pointerEvents=1;fontSize=16;" vertex="1" parent="GYayQTxHQQA6wyQ_yWLV-172">
          <mxGeometry x="125" width="42" height="36" as="geometry">
            <mxRectangle width="42" height="36" as="alternateBounds" />
          </mxGeometry>
        </mxCell>
        <mxCell id="GYayQTxHQQA6wyQ_yWLV-177" style="shape=partialRectangle;html=1;whiteSpace=wrap;connectable=0;strokeColor=inherit;overflow=hidden;fillColor=none;top=0;left=0;bottom=0;right=0;pointerEvents=1;fontSize=16;" vertex="1" parent="GYayQTxHQQA6wyQ_yWLV-172">
          <mxGeometry x="167" width="41" height="36" as="geometry">
            <mxRectangle width="41" height="36" as="alternateBounds" />
          </mxGeometry>
        </mxCell>
        <mxCell id="GYayQTxHQQA6wyQ_yWLV-178" style="shape=partialRectangle;html=1;whiteSpace=wrap;connectable=0;strokeColor=inherit;overflow=hidden;fillColor=none;top=0;left=0;bottom=0;right=0;pointerEvents=1;fontSize=16;" vertex="1" parent="GYayQTxHQQA6wyQ_yWLV-172">
          <mxGeometry x="208" width="42" height="36" as="geometry">
            <mxRectangle width="42" height="36" as="alternateBounds" />
          </mxGeometry>
        </mxCell>
        <mxCell id="GYayQTxHQQA6wyQ_yWLV-179" style="shape=partialRectangle;html=1;whiteSpace=wrap;connectable=0;strokeColor=inherit;overflow=hidden;fillColor=none;top=0;left=0;bottom=0;right=0;pointerEvents=1;fontSize=16;" vertex="1" parent="GYayQTxHQQA6wyQ_yWLV-172">
          <mxGeometry x="250" width="42" height="36" as="geometry">
            <mxRectangle width="42" height="36" as="alternateBounds" />
          </mxGeometry>
        </mxCell>
        <mxCell id="GYayQTxHQQA6wyQ_yWLV-180" style="shape=partialRectangle;html=1;whiteSpace=wrap;connectable=0;strokeColor=inherit;overflow=hidden;fillColor=none;top=0;left=0;bottom=0;right=0;pointerEvents=1;fontSize=16;" vertex="1" parent="GYayQTxHQQA6wyQ_yWLV-172">
          <mxGeometry x="292" width="42" height="36" as="geometry">
            <mxRectangle width="42" height="36" as="alternateBounds" />
          </mxGeometry>
        </mxCell>
        <mxCell id="GYayQTxHQQA6wyQ_yWLV-181" style="shape=tableRow;horizontal=0;startSize=0;swimlaneHead=0;swimlaneBody=0;strokeColor=inherit;top=0;left=0;bottom=0;right=0;collapsible=0;dropTarget=0;fillColor=none;points=[[0,0.5],[1,0.5]];portConstraint=eastwest;fontSize=16;" vertex="1" parent="GYayQTxHQQA6wyQ_yWLV-144">
          <mxGeometry y="144" width="334" height="35" as="geometry" />
        </mxCell>
        <mxCell id="GYayQTxHQQA6wyQ_yWLV-182" style="shape=partialRectangle;html=1;whiteSpace=wrap;connectable=0;strokeColor=inherit;overflow=hidden;fillColor=none;top=0;left=0;bottom=0;right=0;pointerEvents=1;fontSize=16;" vertex="1" parent="GYayQTxHQQA6wyQ_yWLV-181">
          <mxGeometry width="42" height="35" as="geometry">
            <mxRectangle width="42" height="35" as="alternateBounds" />
          </mxGeometry>
        </mxCell>
        <mxCell id="GYayQTxHQQA6wyQ_yWLV-183" style="shape=partialRectangle;html=1;whiteSpace=wrap;connectable=0;strokeColor=inherit;overflow=hidden;fillColor=none;top=0;left=0;bottom=0;right=0;pointerEvents=1;fontSize=16;" vertex="1" parent="GYayQTxHQQA6wyQ_yWLV-181">
          <mxGeometry x="42" width="41" height="35" as="geometry">
            <mxRectangle width="41" height="35" as="alternateBounds" />
          </mxGeometry>
        </mxCell>
        <mxCell id="GYayQTxHQQA6wyQ_yWLV-184" style="shape=partialRectangle;html=1;whiteSpace=wrap;connectable=0;strokeColor=inherit;overflow=hidden;fillColor=none;top=0;left=0;bottom=0;right=0;pointerEvents=1;fontSize=16;" vertex="1" parent="GYayQTxHQQA6wyQ_yWLV-181">
          <mxGeometry x="83" width="42" height="35" as="geometry">
            <mxRectangle width="42" height="35" as="alternateBounds" />
          </mxGeometry>
        </mxCell>
        <mxCell id="GYayQTxHQQA6wyQ_yWLV-185" style="shape=partialRectangle;html=1;whiteSpace=wrap;connectable=0;strokeColor=inherit;overflow=hidden;fillColor=none;top=0;left=0;bottom=0;right=0;pointerEvents=1;fontSize=16;" vertex="1" parent="GYayQTxHQQA6wyQ_yWLV-181">
          <mxGeometry x="125" width="42" height="35" as="geometry">
            <mxRectangle width="42" height="35" as="alternateBounds" />
          </mxGeometry>
        </mxCell>
        <mxCell id="GYayQTxHQQA6wyQ_yWLV-186" style="shape=partialRectangle;html=1;whiteSpace=wrap;connectable=0;strokeColor=inherit;overflow=hidden;fillColor=none;top=0;left=0;bottom=0;right=0;pointerEvents=1;fontSize=16;" vertex="1" parent="GYayQTxHQQA6wyQ_yWLV-181">
          <mxGeometry x="167" width="41" height="35" as="geometry">
            <mxRectangle width="41" height="35" as="alternateBounds" />
          </mxGeometry>
        </mxCell>
        <mxCell id="GYayQTxHQQA6wyQ_yWLV-187" style="shape=partialRectangle;html=1;whiteSpace=wrap;connectable=0;strokeColor=inherit;overflow=hidden;fillColor=none;top=0;left=0;bottom=0;right=0;pointerEvents=1;fontSize=16;" vertex="1" parent="GYayQTxHQQA6wyQ_yWLV-181">
          <mxGeometry x="208" width="42" height="35" as="geometry">
            <mxRectangle width="42" height="35" as="alternateBounds" />
          </mxGeometry>
        </mxCell>
        <mxCell id="GYayQTxHQQA6wyQ_yWLV-188" style="shape=partialRectangle;html=1;whiteSpace=wrap;connectable=0;strokeColor=inherit;overflow=hidden;fillColor=none;top=0;left=0;bottom=0;right=0;pointerEvents=1;fontSize=16;" vertex="1" parent="GYayQTxHQQA6wyQ_yWLV-181">
          <mxGeometry x="250" width="42" height="35" as="geometry">
            <mxRectangle width="42" height="35" as="alternateBounds" />
          </mxGeometry>
        </mxCell>
        <mxCell id="GYayQTxHQQA6wyQ_yWLV-189" style="shape=partialRectangle;html=1;whiteSpace=wrap;connectable=0;strokeColor=inherit;overflow=hidden;fillColor=none;top=0;left=0;bottom=0;right=0;pointerEvents=1;fontSize=16;" vertex="1" parent="GYayQTxHQQA6wyQ_yWLV-181">
          <mxGeometry x="292" width="42" height="35" as="geometry">
            <mxRectangle width="42" height="35" as="alternateBounds" />
          </mxGeometry>
        </mxCell>
        <mxCell id="GYayQTxHQQA6wyQ_yWLV-190" style="shape=tableRow;horizontal=0;startSize=0;swimlaneHead=0;swimlaneBody=0;strokeColor=inherit;top=0;left=0;bottom=0;right=0;collapsible=0;dropTarget=0;fillColor=none;points=[[0,0.5],[1,0.5]];portConstraint=eastwest;fontSize=16;" vertex="1" parent="GYayQTxHQQA6wyQ_yWLV-144">
          <mxGeometry y="179" width="334" height="36" as="geometry" />
        </mxCell>
        <mxCell id="GYayQTxHQQA6wyQ_yWLV-191" style="shape=partialRectangle;html=1;whiteSpace=wrap;connectable=0;strokeColor=inherit;overflow=hidden;fillColor=none;top=0;left=0;bottom=0;right=0;pointerEvents=1;fontSize=16;" vertex="1" parent="GYayQTxHQQA6wyQ_yWLV-190">
          <mxGeometry width="42" height="36" as="geometry">
            <mxRectangle width="42" height="36" as="alternateBounds" />
          </mxGeometry>
        </mxCell>
        <mxCell id="GYayQTxHQQA6wyQ_yWLV-192" style="shape=partialRectangle;html=1;whiteSpace=wrap;connectable=0;strokeColor=inherit;overflow=hidden;fillColor=none;top=0;left=0;bottom=0;right=0;pointerEvents=1;fontSize=16;" vertex="1" parent="GYayQTxHQQA6wyQ_yWLV-190">
          <mxGeometry x="42" width="41" height="36" as="geometry">
            <mxRectangle width="41" height="36" as="alternateBounds" />
          </mxGeometry>
        </mxCell>
        <mxCell id="GYayQTxHQQA6wyQ_yWLV-193" style="shape=partialRectangle;html=1;whiteSpace=wrap;connectable=0;strokeColor=inherit;overflow=hidden;fillColor=none;top=0;left=0;bottom=0;right=0;pointerEvents=1;fontSize=16;" vertex="1" parent="GYayQTxHQQA6wyQ_yWLV-190">
          <mxGeometry x="83" width="42" height="36" as="geometry">
            <mxRectangle width="42" height="36" as="alternateBounds" />
          </mxGeometry>
        </mxCell>
        <mxCell id="GYayQTxHQQA6wyQ_yWLV-194" style="shape=partialRectangle;html=1;whiteSpace=wrap;connectable=0;strokeColor=inherit;overflow=hidden;fillColor=none;top=0;left=0;bottom=0;right=0;pointerEvents=1;fontSize=16;" vertex="1" parent="GYayQTxHQQA6wyQ_yWLV-190">
          <mxGeometry x="125" width="42" height="36" as="geometry">
            <mxRectangle width="42" height="36" as="alternateBounds" />
          </mxGeometry>
        </mxCell>
        <mxCell id="GYayQTxHQQA6wyQ_yWLV-195" style="shape=partialRectangle;html=1;whiteSpace=wrap;connectable=0;strokeColor=inherit;overflow=hidden;fillColor=none;top=0;left=0;bottom=0;right=0;pointerEvents=1;fontSize=16;" vertex="1" parent="GYayQTxHQQA6wyQ_yWLV-190">
          <mxGeometry x="167" width="41" height="36" as="geometry">
            <mxRectangle width="41" height="36" as="alternateBounds" />
          </mxGeometry>
        </mxCell>
        <mxCell id="GYayQTxHQQA6wyQ_yWLV-196" style="shape=partialRectangle;html=1;whiteSpace=wrap;connectable=0;strokeColor=inherit;overflow=hidden;fillColor=none;top=0;left=0;bottom=0;right=0;pointerEvents=1;fontSize=16;" vertex="1" parent="GYayQTxHQQA6wyQ_yWLV-190">
          <mxGeometry x="208" width="42" height="36" as="geometry">
            <mxRectangle width="42" height="36" as="alternateBounds" />
          </mxGeometry>
        </mxCell>
        <mxCell id="GYayQTxHQQA6wyQ_yWLV-197" style="shape=partialRectangle;html=1;whiteSpace=wrap;connectable=0;strokeColor=inherit;overflow=hidden;fillColor=none;top=0;left=0;bottom=0;right=0;pointerEvents=1;fontSize=16;" vertex="1" parent="GYayQTxHQQA6wyQ_yWLV-190">
          <mxGeometry x="250" width="42" height="36" as="geometry">
            <mxRectangle width="42" height="36" as="alternateBounds" />
          </mxGeometry>
        </mxCell>
        <mxCell id="GYayQTxHQQA6wyQ_yWLV-198" style="shape=partialRectangle;html=1;whiteSpace=wrap;connectable=0;strokeColor=inherit;overflow=hidden;fillColor=none;top=0;left=0;bottom=0;right=0;pointerEvents=1;fontSize=16;" vertex="1" parent="GYayQTxHQQA6wyQ_yWLV-190">
          <mxGeometry x="292" width="42" height="36" as="geometry">
            <mxRectangle width="42" height="36" as="alternateBounds" />
          </mxGeometry>
        </mxCell>
        <mxCell id="GYayQTxHQQA6wyQ_yWLV-199" value="" style="shape=curlyBracket;whiteSpace=wrap;html=1;rounded=1;labelPosition=left;verticalLabelPosition=middle;align=right;verticalAlign=middle;" vertex="1" parent="1">
          <mxGeometry x="30" y="945" width="20" height="100" as="geometry" />
        </mxCell>
        <mxCell id="GYayQTxHQQA6wyQ_yWLV-200" value="" style="shape=curlyBracket;whiteSpace=wrap;html=1;rounded=1;labelPosition=left;verticalLabelPosition=middle;align=right;verticalAlign=middle;" vertex="1" parent="1">
          <mxGeometry x="30" y="1045" width="20" height="80" as="geometry" />
        </mxCell>
        <mxCell id="GYayQTxHQQA6wyQ_yWLV-201" value="" style="shape=curlyBracket;whiteSpace=wrap;html=1;rounded=1;labelPosition=left;verticalLabelPosition=middle;align=right;verticalAlign=middle;" vertex="1" parent="1">
          <mxGeometry x="30" y="1125" width="20" height="30" as="geometry" />
        </mxCell>
        <mxCell id="GYayQTxHQQA6wyQ_yWLV-202" value="" style="shape=table;startSize=0;container=1;collapsible=0;childLayout=tableLayout;fontSize=16;" vertex="1" parent="1">
          <mxGeometry x="440" y="945" width="480" height="40" as="geometry" />
        </mxCell>
        <mxCell id="GYayQTxHQQA6wyQ_yWLV-203" value="" style="shape=tableRow;horizontal=0;startSize=0;swimlaneHead=0;swimlaneBody=0;strokeColor=inherit;top=0;left=0;bottom=0;right=0;collapsible=0;dropTarget=0;fillColor=none;points=[[0,0.5],[1,0.5]];portConstraint=eastwest;fontSize=16;" vertex="1" parent="GYayQTxHQQA6wyQ_yWLV-202">
          <mxGeometry width="480" height="40" as="geometry" />
        </mxCell>
        <mxCell id="GYayQTxHQQA6wyQ_yWLV-204" value="" style="shape=partialRectangle;html=1;whiteSpace=wrap;connectable=0;strokeColor=#b85450;overflow=hidden;fillColor=#f8cecc;top=0;left=0;bottom=0;right=0;pointerEvents=1;fontSize=16;" vertex="1" parent="GYayQTxHQQA6wyQ_yWLV-203">
          <mxGeometry width="60" height="40" as="geometry">
            <mxRectangle width="60" height="40" as="alternateBounds" />
          </mxGeometry>
        </mxCell>
        <mxCell id="GYayQTxHQQA6wyQ_yWLV-205" value="" style="shape=partialRectangle;html=1;whiteSpace=wrap;connectable=0;strokeColor=#b85450;overflow=hidden;fillColor=#f8cecc;top=0;left=0;bottom=0;right=0;pointerEvents=1;fontSize=16;" vertex="1" parent="GYayQTxHQQA6wyQ_yWLV-203">
          <mxGeometry x="60" width="60" height="40" as="geometry">
            <mxRectangle width="60" height="40" as="alternateBounds" />
          </mxGeometry>
        </mxCell>
        <mxCell id="GYayQTxHQQA6wyQ_yWLV-206" style="shape=partialRectangle;html=1;whiteSpace=wrap;connectable=0;strokeColor=#36393d;overflow=hidden;fillColor=#cdeb8b;top=0;left=0;bottom=0;right=0;pointerEvents=1;fontSize=16;" vertex="1" parent="GYayQTxHQQA6wyQ_yWLV-203">
          <mxGeometry x="120" width="60" height="40" as="geometry">
            <mxRectangle width="60" height="40" as="alternateBounds" />
          </mxGeometry>
        </mxCell>
        <mxCell id="GYayQTxHQQA6wyQ_yWLV-207" style="shape=partialRectangle;html=1;whiteSpace=wrap;connectable=0;strokeColor=#82b366;overflow=hidden;fillColor=#d5e8d4;top=0;left=0;bottom=0;right=0;pointerEvents=1;fontSize=16;" vertex="1" parent="GYayQTxHQQA6wyQ_yWLV-203">
          <mxGeometry x="180" width="60" height="40" as="geometry">
            <mxRectangle width="60" height="40" as="alternateBounds" />
          </mxGeometry>
        </mxCell>
        <mxCell id="GYayQTxHQQA6wyQ_yWLV-208" style="shape=partialRectangle;html=1;whiteSpace=wrap;connectable=0;strokeColor=#82b366;overflow=hidden;fillColor=#d5e8d4;top=0;left=0;bottom=0;right=0;pointerEvents=1;fontSize=16;" vertex="1" parent="GYayQTxHQQA6wyQ_yWLV-203">
          <mxGeometry x="240" width="60" height="40" as="geometry">
            <mxRectangle width="60" height="40" as="alternateBounds" />
          </mxGeometry>
        </mxCell>
        <mxCell id="GYayQTxHQQA6wyQ_yWLV-209" style="shape=partialRectangle;html=1;whiteSpace=wrap;connectable=0;strokeColor=#82b366;overflow=hidden;fillColor=#d5e8d4;top=0;left=0;bottom=0;right=0;pointerEvents=1;fontSize=16;" vertex="1" parent="GYayQTxHQQA6wyQ_yWLV-203">
          <mxGeometry x="300" width="60" height="40" as="geometry">
            <mxRectangle width="60" height="40" as="alternateBounds" />
          </mxGeometry>
        </mxCell>
        <mxCell id="GYayQTxHQQA6wyQ_yWLV-210" style="shape=partialRectangle;html=1;whiteSpace=wrap;connectable=0;strokeColor=#82b366;overflow=hidden;fillColor=#d5e8d4;top=0;left=0;bottom=0;right=0;pointerEvents=1;fontSize=16;" vertex="1" parent="GYayQTxHQQA6wyQ_yWLV-203">
          <mxGeometry x="360" width="60" height="40" as="geometry">
            <mxRectangle width="60" height="40" as="alternateBounds" />
          </mxGeometry>
        </mxCell>
        <mxCell id="GYayQTxHQQA6wyQ_yWLV-211" style="shape=partialRectangle;html=1;whiteSpace=wrap;connectable=0;strokeColor=#82b366;overflow=hidden;fillColor=#d5e8d4;top=0;left=0;bottom=0;right=0;pointerEvents=1;fontSize=16;" vertex="1" parent="GYayQTxHQQA6wyQ_yWLV-203">
          <mxGeometry x="420" width="60" height="40" as="geometry">
            <mxRectangle width="60" height="40" as="alternateBounds" />
          </mxGeometry>
        </mxCell>
        <mxCell id="GYayQTxHQQA6wyQ_yWLV-213" value="" style="endArrow=classic;html=1;rounded=0;exitX=0.612;exitY=0.23;exitDx=0;exitDy=0;exitPerimeter=0;strokeColor=#FF0000;" edge="1" parent="1" source="GYayQTxHQQA6wyQ_yWLV-143">
          <mxGeometry width="50" height="50" relative="1" as="geometry">
            <mxPoint x="560" y="870" as="sourcePoint" />
            <mxPoint x="560" y="943" as="targetPoint" />
          </mxGeometry>
        </mxCell>
        <mxCell id="GYayQTxHQQA6wyQ_yWLV-214" value="Counter --" style="rounded=1;whiteSpace=wrap;html=1;fontSize=18;fillColor=#bac8d3;strokeColor=#23445d;" vertex="1" parent="1">
          <mxGeometry x="540" y="825" width="110" height="30" as="geometry" />
        </mxCell>
        <mxCell id="GYayQTxHQQA6wyQ_yWLV-215" value="" style="shape=curlyBracket;whiteSpace=wrap;html=1;rounded=1;flipH=1;labelPosition=right;verticalLabelPosition=middle;align=left;verticalAlign=middle;direction=south;" vertex="1" parent="1">
          <mxGeometry x="560" y="905" width="360" height="20" as="geometry" />
        </mxCell>
        <mxCell id="GYayQTxHQQA6wyQ_yWLV-216" value="Free Tile List" style="text;html=1;align=center;verticalAlign=middle;whiteSpace=wrap;rounded=0;fontSize=20;" vertex="1" parent="1">
          <mxGeometry x="700" y="865" width="140" height="30" as="geometry" />
        </mxCell>
        <mxCell id="GYayQTxHQQA6wyQ_yWLV-217" value="" style="shape=table;startSize=0;container=1;collapsible=0;childLayout=tableLayout;fontSize=16;fillColor=#dae8fc;strokeColor=#6c8ebf;" vertex="1" parent="1">
          <mxGeometry x="440" y="1035" width="180" height="120" as="geometry" />
        </mxCell>
        <mxCell id="GYayQTxHQQA6wyQ_yWLV-218" value="" style="shape=tableRow;horizontal=0;startSize=0;swimlaneHead=0;swimlaneBody=0;strokeColor=inherit;top=0;left=0;bottom=0;right=0;collapsible=0;dropTarget=0;fillColor=none;points=[[0,0.5],[1,0.5]];portConstraint=eastwest;fontSize=16;" vertex="1" parent="GYayQTxHQQA6wyQ_yWLV-217">
          <mxGeometry width="180" height="40" as="geometry" />
        </mxCell>
        <mxCell id="GYayQTxHQQA6wyQ_yWLV-219" value="" style="shape=partialRectangle;html=1;whiteSpace=wrap;connectable=0;strokeColor=inherit;overflow=hidden;fillColor=none;top=0;left=0;bottom=0;right=0;pointerEvents=1;fontSize=16;" vertex="1" parent="GYayQTxHQQA6wyQ_yWLV-218">
          <mxGeometry width="60" height="40" as="geometry">
            <mxRectangle width="60" height="40" as="alternateBounds" />
          </mxGeometry>
        </mxCell>
        <mxCell id="GYayQTxHQQA6wyQ_yWLV-220" value="" style="shape=partialRectangle;html=1;whiteSpace=wrap;connectable=0;strokeColor=inherit;overflow=hidden;fillColor=none;top=0;left=0;bottom=0;right=0;pointerEvents=1;fontSize=16;" vertex="1" parent="GYayQTxHQQA6wyQ_yWLV-218">
          <mxGeometry x="60" width="60" height="40" as="geometry">
            <mxRectangle width="60" height="40" as="alternateBounds" />
          </mxGeometry>
        </mxCell>
        <mxCell id="GYayQTxHQQA6wyQ_yWLV-221" value="" style="shape=partialRectangle;html=1;whiteSpace=wrap;connectable=0;strokeColor=inherit;overflow=hidden;fillColor=none;top=0;left=0;bottom=0;right=0;pointerEvents=1;fontSize=16;" vertex="1" parent="GYayQTxHQQA6wyQ_yWLV-218">
          <mxGeometry x="120" width="60" height="40" as="geometry">
            <mxRectangle width="60" height="40" as="alternateBounds" />
          </mxGeometry>
        </mxCell>
        <mxCell id="GYayQTxHQQA6wyQ_yWLV-222" value="" style="shape=tableRow;horizontal=0;startSize=0;swimlaneHead=0;swimlaneBody=0;strokeColor=inherit;top=0;left=0;bottom=0;right=0;collapsible=0;dropTarget=0;fillColor=none;points=[[0,0.5],[1,0.5]];portConstraint=eastwest;fontSize=16;" vertex="1" parent="GYayQTxHQQA6wyQ_yWLV-217">
          <mxGeometry y="40" width="180" height="40" as="geometry" />
        </mxCell>
        <mxCell id="GYayQTxHQQA6wyQ_yWLV-223" value="" style="shape=partialRectangle;html=1;whiteSpace=wrap;connectable=0;strokeColor=inherit;overflow=hidden;fillColor=none;top=0;left=0;bottom=0;right=0;pointerEvents=1;fontSize=16;" vertex="1" parent="GYayQTxHQQA6wyQ_yWLV-222">
          <mxGeometry width="60" height="40" as="geometry">
            <mxRectangle width="60" height="40" as="alternateBounds" />
          </mxGeometry>
        </mxCell>
        <mxCell id="GYayQTxHQQA6wyQ_yWLV-224" value="" style="shape=partialRectangle;html=1;whiteSpace=wrap;connectable=0;strokeColor=inherit;overflow=hidden;fillColor=none;top=0;left=0;bottom=0;right=0;pointerEvents=1;fontSize=16;" vertex="1" parent="GYayQTxHQQA6wyQ_yWLV-222">
          <mxGeometry x="60" width="60" height="40" as="geometry">
            <mxRectangle width="60" height="40" as="alternateBounds" />
          </mxGeometry>
        </mxCell>
        <mxCell id="GYayQTxHQQA6wyQ_yWLV-225" value="" style="shape=partialRectangle;html=1;whiteSpace=wrap;connectable=0;strokeColor=inherit;overflow=hidden;fillColor=none;top=0;left=0;bottom=0;right=0;pointerEvents=1;fontSize=16;" vertex="1" parent="GYayQTxHQQA6wyQ_yWLV-222">
          <mxGeometry x="120" width="60" height="40" as="geometry">
            <mxRectangle width="60" height="40" as="alternateBounds" />
          </mxGeometry>
        </mxCell>
        <mxCell id="GYayQTxHQQA6wyQ_yWLV-226" value="" style="shape=tableRow;horizontal=0;startSize=0;swimlaneHead=0;swimlaneBody=0;strokeColor=inherit;top=0;left=0;bottom=0;right=0;collapsible=0;dropTarget=0;fillColor=none;points=[[0,0.5],[1,0.5]];portConstraint=eastwest;fontSize=16;" vertex="1" parent="GYayQTxHQQA6wyQ_yWLV-217">
          <mxGeometry y="80" width="180" height="40" as="geometry" />
        </mxCell>
        <mxCell id="GYayQTxHQQA6wyQ_yWLV-227" value="" style="shape=partialRectangle;html=1;whiteSpace=wrap;connectable=0;strokeColor=inherit;overflow=hidden;fillColor=none;top=0;left=0;bottom=0;right=0;pointerEvents=1;fontSize=16;" vertex="1" parent="GYayQTxHQQA6wyQ_yWLV-226">
          <mxGeometry width="60" height="40" as="geometry">
            <mxRectangle width="60" height="40" as="alternateBounds" />
          </mxGeometry>
        </mxCell>
        <mxCell id="GYayQTxHQQA6wyQ_yWLV-228" value="" style="shape=partialRectangle;html=1;whiteSpace=wrap;connectable=0;strokeColor=inherit;overflow=hidden;fillColor=none;top=0;left=0;bottom=0;right=0;pointerEvents=1;fontSize=16;" vertex="1" parent="GYayQTxHQQA6wyQ_yWLV-226">
          <mxGeometry x="60" width="60" height="40" as="geometry">
            <mxRectangle width="60" height="40" as="alternateBounds" />
          </mxGeometry>
        </mxCell>
        <mxCell id="GYayQTxHQQA6wyQ_yWLV-229" value="" style="shape=partialRectangle;html=1;whiteSpace=wrap;connectable=0;strokeColor=inherit;overflow=hidden;fillColor=none;top=0;left=0;bottom=0;right=0;pointerEvents=1;fontSize=16;" vertex="1" parent="GYayQTxHQQA6wyQ_yWLV-226">
          <mxGeometry x="120" width="60" height="40" as="geometry">
            <mxRectangle width="60" height="40" as="alternateBounds" />
          </mxGeometry>
        </mxCell>
        <mxCell id="GYayQTxHQQA6wyQ_yWLV-230" value="" style="endArrow=classic;html=1;rounded=0;exitX=0.315;exitY=1.125;exitDx=0;exitDy=0;exitPerimeter=0;entryX=0.841;entryY=-0.042;entryDx=0;entryDy=0;entryPerimeter=0;strokeColor=#FF0000;" edge="1" parent="1" source="GYayQTxHQQA6wyQ_yWLV-202" target="GYayQTxHQQA6wyQ_yWLV-218">
          <mxGeometry width="50" height="50" relative="1" as="geometry">
            <mxPoint x="560" y="1100" as="sourcePoint" />
            <mxPoint x="610" y="1050" as="targetPoint" />
          </mxGeometry>
        </mxCell>
        <mxCell id="GYayQTxHQQA6wyQ_yWLV-231" value="" style="shape=curlyBracket;whiteSpace=wrap;html=1;rounded=1;flipH=1;labelPosition=right;verticalLabelPosition=middle;align=left;verticalAlign=middle;" vertex="1" parent="1">
          <mxGeometry x="620" y="1035" width="20" height="120" as="geometry" />
        </mxCell>
        <mxCell id="GYayQTxHQQA6wyQ_yWLV-232" value="Physical Tile Pool" style="text;html=1;align=center;verticalAlign=middle;whiteSpace=wrap;rounded=0;fontSize=20;" vertex="1" parent="1">
          <mxGeometry x="660" y="1080" width="240" height="30" as="geometry" />
        </mxCell>
        <mxCell id="GYayQTxHQQA6wyQ_yWLV-233" value="&lt;b&gt;PreFrame&lt;/b&gt; Virtual Tile Table" style="text;html=1;align=center;verticalAlign=middle;whiteSpace=wrap;rounded=0;fontSize=20;" vertex="1" parent="1">
          <mxGeometry x="70" y="895" width="267" height="30" as="geometry" />
        </mxCell>
        <mxCell id="GYayQTxHQQA6wyQ_yWLV-235" value="Release" style="text;html=1;align=center;verticalAlign=middle;whiteSpace=wrap;rounded=0;" vertex="1" parent="1">
          <mxGeometry x="560" y="885" width="60" height="30" as="geometry" />
        </mxCell>
        <mxCell id="GYayQTxHQQA6wyQ_yWLV-236" value="Level 6" style="text;html=1;align=center;verticalAlign=middle;whiteSpace=wrap;rounded=0;" vertex="1" parent="1">
          <mxGeometry x="-40" y="980" width="60" height="30" as="geometry" />
        </mxCell>
        <mxCell id="GYayQTxHQQA6wyQ_yWLV-237" value="Level 7" style="text;html=1;align=center;verticalAlign=middle;whiteSpace=wrap;rounded=0;" vertex="1" parent="1">
          <mxGeometry x="-40" y="1070" width="60" height="30" as="geometry" />
        </mxCell>
        <mxCell id="GYayQTxHQQA6wyQ_yWLV-238" value="Level 8" style="text;html=1;align=center;verticalAlign=middle;whiteSpace=wrap;rounded=0;" vertex="1" parent="1">
          <mxGeometry x="-40" y="1125" width="60" height="30" as="geometry" />
        </mxCell>
        <mxCell id="GYayQTxHQQA6wyQ_yWLV-239" value="Release Physical Tile" style="text;strokeColor=none;fillColor=none;html=1;fontSize=24;fontStyle=1;verticalAlign=middle;align=center;" vertex="1" parent="1">
          <mxGeometry x="364" y="775" width="100" height="40" as="geometry" />
        </mxCell>
        <mxCell id="GYayQTxHQQA6wyQ_yWLV-240" value="" style="endArrow=classic;html=1;rounded=0;exitX=0.696;exitY=0.038;exitDx=0;exitDy=0;exitPerimeter=0;entryX=0.316;entryY=1.067;entryDx=0;entryDy=0;entryPerimeter=0;strokeColor=#FF0000;" edge="1" parent="1" source="GYayQTxHQQA6wyQ_yWLV-181" target="GYayQTxHQQA6wyQ_yWLV-203">
          <mxGeometry width="50" height="50" relative="1" as="geometry">
            <mxPoint x="390" y="830" as="sourcePoint" />
            <mxPoint x="440" y="780" as="targetPoint" />
          </mxGeometry>
        </mxCell>
        <mxCell id="GYayQTxHQQA6wyQ_yWLV-241" value="" style="endArrow=classic;html=1;rounded=0;dashed=1;entryX=0.253;entryY=-0.075;entryDx=0;entryDy=0;entryPerimeter=0;strokeColor=#FF0000;" edge="1" parent="1">
          <mxGeometry width="50" height="50" relative="1" as="geometry">
            <mxPoint x="619" y="865" as="sourcePoint" />
            <mxPoint x="619" y="942" as="targetPoint" />
          </mxGeometry>
        </mxCell>
        <mxCell id="GYayQTxHQQA6wyQ_yWLV-242" value="" style="endArrow=classic;html=1;rounded=0;exitX=0.839;exitY=0.025;exitDx=0;exitDy=0;exitPerimeter=0;entryX=0.315;entryY=1.092;entryDx=0;entryDy=0;entryPerimeter=0;strokeColor=#FF0000;" edge="1" parent="1" source="GYayQTxHQQA6wyQ_yWLV-118" target="GYayQTxHQQA6wyQ_yWLV-73">
          <mxGeometry width="50" height="50" relative="1" as="geometry">
            <mxPoint x="390" y="830" as="sourcePoint" />
            <mxPoint x="440" y="780" as="targetPoint" />
          </mxGeometry>
        </mxCell>
      </root>
    </mxGraphModel>
  </diagram>
</mxfile>
